Coordinates
version=1
nRows=10
nColumns=28
inDegrees=yes

Units are S.I. units (second, meters, Newtons, ...)
Angles are in degrees.

endheader
time	pelvis_tilt	pelvis_list	pelvis_rotation	pelvis_tx	pelvis_ty	pelvis_tz	hip_flexion_r	hip_adduction_r	hip_rotation_r	knee_angle_r	ankle_angle_r	subtalar_angle_r	mtp_angle_r	hip_flexion_l	hip_adduction_l	hip_rotation_l	knee_angle_l	socket_flexion	socket_adduction	socket_rotation	socket_tx	socket_ty	socket_tz	foot_flex	lumbar_extension	lumbar_bending	lumbar_rotation
      0.00000000	      0.32683250	     -7.72609518	     -9.17360765	     -0.86673595	      0.99135332	      0.29978229	    -26.54876947	      8.99273281	      6.27057317	     -3.29364048	     11.93767013	     -7.86087297	      3.01360581	     25.16217355	     -9.44609714	      9.05525607	     -4.17113183	      0.00000000	      0.00000000	      0.00000000	      0.00000000	      0.00000000	      0.00000000	     -0.32026425	    -11.99888236	      4.87139667	     11.95572538
      0.00416667	      0.26701546	     -7.74924961	     -9.08634234	     -0.86114320	      0.99072336	      0.29931258	    -26.65715045	      9.01476313	      6.33780814	     -3.50569269	     11.89401397	     -7.86276118	      3.00575180	     25.00011671	     -9.35755434	      9.06371436	     -4.22972987	      0.00000000	      0.00000000	      0.00000000	      0.00000000	      0.00000000	      0.00000000	     -0.39211296	    -11.84687684	      4.89583128	     11.95813374
      0.00833333	      0.22681309	     -7.77033429	     -9.07338744	     -0.85556506	      0.99024958	      0.29893243	    -26.56430891	      9.01930927	      6.30560938	     -4.15643234	     11.68068315	     -8.03733324	      2.94555602	     24.70626948	     -9.31830877	      9.15624156	     -4.07963009	      0.00000000	      0.00000000	      0.00000000	      0.00000000	      0.00000000	      0.00000000	     -0.84081674	    -11.80098780	      4.88152452	     11.93626166
      0.01250000	      0.16755860	     -7.80083496	     -8.98029220	     -0.84950586	      0.98964161	      0.29843657	    -26.66146064	      9.05063082	      6.35853074	     -4.41850813	     11.62687590	     -8.06207870	      2.93707927	     24.51897250	     -9.22801794	      9.14268814	     -4.14249345	      0.00000000	      0.00000000	      0.00000000	      0.00000000	      0.00000000	      0.00000000	     -0.92212053	    -11.63098791	      4.92348232	     11.93845987
      0.01666667	      0.12954839	     -7.83478600	     -9.02379331	     -0.84370106	      0.98925146	      0.29811682	    -26.44554535	      9.05621934	      6.25053775	     -5.33754090	     11.34155684	     -8.37797468	      2.86972602	     24.18623748	     -9.22516637	      9.21110420	     -3.98078649	      0.00000000	      0.00000000	      0.00000000	      0.00000000	      0.00000000	      0.00000000	     -1.43989049	    -11.61506610	      4.91928229	     11.90605722
      0.02083333	      0.06963337	     -7.88230945	     -9.01756284	     -0.83761752	      0.98878677	      0.29765707	    -26.32206636	      9.08388196	      6.20803540	     -6.04623185	     11.14381897	     -8.67664756	      2.83880292	     23.93819553	     -9.19137778	      9.17548870	     -3.95347233	      0.00000000	      0.00000000	      0.00000000	      0.00000000	      0.00000000	      0.00000000	     -1.71719663	    -11.52598240	      4.96963219	     11.91136235
      0.02500000	      0.00123687	     -7.89194028	     -8.98513409	     -0.83136779	      0.98831207	      0.29721401	    -26.23194231	      9.09210372	      6.27050876	     -6.67750928	     10.94658183	     -8.88208963	      2.81467923	     23.68561106	     -9.12000721	      9.25455378	     -3.92266433	      0.00000000	      0.00000000	      0.00000000	      0.00000000	      0.00000000	      0.00000000	     -1.97842077	    -11.39153291	      4.95447397	     11.90569835
      0.02916667	     -0.09730763	     -7.93043343	     -8.98621790	     -0.82509989	      0.98788592	      0.29673960	    -26.03423067	      9.11557639	      6.23364574	     -7.44482425	     10.66959258	     -9.26892550	      2.78958757	     23.46885171	     -9.08069423	      9.21605679	     -3.89971565	      0.00000000	      0.00000000	      0.00000000	      0.00000000	      0.00000000	      0.00000000	     -2.29526328	    -11.25144209	      4.99790257	     11.90856566
      0.03333333	     -0.21550326	     -7.93439526	     -8.99200178	     -0.81875111	      0.98748067	      0.29634796	    -25.80621755	      9.11891911	      6.26417681	     -8.22889079	     10.34479508	     -9.71916692	      2.78048829	     23.26713676	     -9.02328506	      9.23862549	     -3.90525154	      0.00000000	      0.00000000	      0.00000000	      0.00000000	      0.00000000	      0.00000000	     -2.58805998	    -11.05706768	      5.00826005	     11.90697113
      0.03750000	     -0.35776561	     -7.91339601	     -8.94924767	     -0.81229730	      0.98704742	      0.29594034	    -25.58371204	      9.13365631	      6.36399185	     -8.94895665	      9.99657190	    -10.13971007	      2.78524127	     23.10113880	     -8.92834802	      9.30237668	     -3.89798768	      0.00000000	      0.00000000	      0.00000000	      0.00000000	      0.00000000	      0.00000000	     -2.82144417	    -10.83797984	      4.96161946	     11.88569431
